<svg width="21" height="21" viewBox="0 0 21 21" fill="none" xmlns="http://www.w3.org/2000/svg">
<path d="M20 10.5C20.0016 11.7513 19.7552 12.9905 19.2751 14.146C18.795 15.3015 18.0906 16.3505 17.2027 17.2322C16.3221 18.1112 15.2769 18.8082 14.1268 19.2831C12.9767 19.758 11.7443 20.0016 10.5 20C5.25316 20 1.00001 15.7468 1.00001 10.5C0.996687 8.06409 1.93237 5.72063 3.61251 3.95688C4.49902 3.02142 5.56709 2.27668 6.75137 1.76826C7.93564 1.25984 9.21121 0.998425 10.5 1.00001C11.7443 0.998397 12.9767 1.24201 14.1268 1.71693C15.2769 2.19185 16.3221 2.88876 17.2027 3.76783C18.0906 4.64954 18.795 5.69845 19.2751 6.85397C19.7552 8.00949 20.0016 9.2487 20 10.5V10.5Z" stroke="white" stroke-width="1.9" stroke-linecap="round" stroke-linejoin="round"/>
<path d="M20 10.5C18.6139 10.5 14.7902 9.97754 11.3678 11.48C7.64998 13.1125 4.95816 15.6448 3.78491 17.2199" stroke="white" stroke-width="1.9" stroke-linecap="round" stroke-linejoin="round"/>
<path d="M6.9375 1.69067C8.42425 3.06295 11.6685 6.55657 12.875 10.025C14.0815 13.4935 14.528 17.758 14.8035 18.9716" stroke="white" stroke-width="1.9" stroke-linecap="round" stroke-linejoin="round"/>
<path d="M1.07312 9.31249C2.86767 9.42079 7.61814 9.51816 10.6581 8.21999C13.6981 6.92181 16.314 4.53399 17.2112 3.77637M1.71247 14.1162C2.54957 16.1425 4.0593 17.8184 5.98747 18.8619" stroke="white" stroke-width="1.9" stroke-linecap="round" stroke-linejoin="round"/>
<path d="M1.00001 10.5C0.996687 8.06409 1.93237 5.72063 3.61251 3.95688M10.5 1.00001C9.21121 0.998424 7.93564 1.25984 6.75137 1.76826C5.56709 2.27668 4.49902 3.02141 3.61251 3.95688M14.3 1.79041C15.3819 2.26376 16.3662 2.93432 17.2027 3.76783C18.0906 4.64954 18.795 5.69845 19.2751 6.85397C19.7552 8.00949 20.0016 9.2487 20 10.5C20 11.6694 19.7886 12.79 19.4015 13.825M10.5 20C11.7443 20.0016 12.9767 19.758 14.1268 19.2831C15.2769 18.8081 16.3221 18.1112 17.2027 17.2322" stroke="white" stroke-width="1.9" stroke-linecap="round" stroke-linejoin="round"/>
</svg>
